solid Exported from Blender-3.6.4 Release Candidate
facet normal 0.255165 0.210440 0.943719
outer loop
vertex 10.974731 -987.392517 0.000000
vertex 51.210999 -878.303406 -35.204926
vertex -4.393848 -810.881165 -35.204865
endloop
endfacet
facet normal 0.930749 0.095472 0.352976
outer loop
vertex 79.429245 -801.797791 -130.305542
vertex 51.210999 -878.303406 -35.204926
vertex 91.447502 -987.392517 -111.797066
endloop
endfacet
facet normal -0.574141 0.111781 0.811090
outer loop
vertex 10.974731 -987.392517 0.000000
vertex -4.393848 -810.881165 -35.204865
vertex -38.760223 -987.392517 -35.205505
endloop
endfacet
facet normal -0.574140 -0.111781 0.811091
outer loop
vertex 10.974731 -987.392517 0.000000
vertex -38.760223 -987.392517 -35.205505
vertex -4.393848 -1163.903809 -35.204834
endloop
endfacet
facet normal 0.255165 -0.210440 0.943719
outer loop
vertex 10.974731 -987.392517 0.000000
vertex -4.393848 -1163.903809 -35.204834
vertex 51.210999 -1096.481567 -35.204895
endloop
endfacet
facet normal 0.986401 0.078287 0.144517
outer loop
vertex 79.429245 -801.797791 -130.305542
vertex 91.447502 -987.392517 -111.797066
vertex 100.946465 -878.302979 -235.727463
endloop
endfacet
facet normal 0.086355 0.882307 0.462686
outer loop
vertex -15.172058 -687.091187 -130.305481
vertex 35.842583 -701.790283 -111.796677
vertex 10.974731 -634.366455 -235.727478
endloop
endfacet
facet normal -0.984748 0.093458 0.146755
outer loop
vertex -73.639549 -987.392517 -130.306458
vertex -54.129189 -810.880554 -111.797005
vertex -78.997002 -878.302979 -235.727463
endloop
endfacet
facet normal -0.922456 -0.322127 0.212859
outer loop
vertex -15.172058 -1287.693848 -130.305420
vertex -54.129189 -1163.904419 -111.796974
vertex -44.630814 -1272.996460 -235.727417
endloop
endfacet
facet normal 0.907755 -0.353961 0.225149
outer loop
vertex 79.429245 -1172.987183 -130.305511
vertex 35.842583 -1272.994751 -111.796631
vertex 66.580276 -1272.996460 -235.727417
endloop
endfacet
facet normal 0.979709 0.190743 0.061541
outer loop
vertex 79.429245 -801.797791 -130.305542
vertex 100.946465 -878.302979 -235.727463
vertex 66.580276 -701.788574 -235.727478
endloop
endfacet
facet normal -0.765337 0.631203 0.125865
outer loop
vertex -15.172058 -687.091187 -130.305481
vertex 10.974731 -634.366455 -235.727478
vertex -44.630814 -701.788574 -235.727478
endloop
endfacet
facet normal -0.998711 -0.000000 0.050754
outer loop
vertex -73.639549 -987.392517 -130.306458
vertex -78.997002 -878.302979 -235.727463
vertex -78.997002 -1096.482056 -235.727432
endloop
endfacet
facet normal -0.765338 -0.631202 0.125865
outer loop
vertex -15.172058 -1287.693848 -130.305420
vertex -44.630814 -1272.996460 -235.727417
vertex 10.974731 -1340.418579 -235.727417
endloop
endfacet
facet normal 0.979709 -0.190743 0.061542
outer loop
vertex 79.429245 -1172.987183 -130.305511
vertex 66.580276 -1272.996460 -235.727417
vertex 100.946465 -1096.482056 -235.727432
endloop
endfacet
facet normal 0.792743 0.326447 -0.514772
outer loop
vertex 37.121521 -687.091187 -341.149475
vertex 76.078651 -810.880615 -359.657928
vertex 26.343311 -810.881165 -436.250061
endloop
endfacet
facet normal -0.837003 0.277512 -0.471606
outer loop
vertex -57.479782 -801.797791 -341.149384
vertex -13.893118 -701.790283 -359.658264
vertex -29.261536 -878.303467 -436.250000
endloop
endfacet
facet normal -0.930749 -0.095472 -0.352976
outer loop
vertex -57.479782 -1172.987305 -341.149353
vertex -69.498039 -987.392517 -359.657837
vertex -29.261536 -1096.481567 -436.249969
endloop
endfacet
facet normal 0.114997 -0.598860 -0.792554
outer loop
vertex 37.121521 -1287.693848 -341.149414
vertex -13.893118 -1272.994751 -359.658203
vertex 26.343311 -1163.903931 -436.250000
endloop
endfacet
facet normal 0.936706 -0.067512 -0.343547
outer loop
vertex 95.589012 -987.392517 -341.148438
vertex 76.078651 -1163.904541 -359.657898
vertex 60.709686 -987.392517 -436.249390
endloop
endfacet
facet normal 0.574141 -0.111781 -0.811090
outer loop
vertex 60.709686 -987.392517 -436.249390
vertex 26.343311 -1163.903931 -436.250000
vertex 10.974731 -987.392517 -471.454895
endloop
endfacet
facet normal 0.827728 -0.161155 -0.537490
outer loop
vertex 60.709686 -987.392517 -436.249390
vertex 76.078651 -1163.904541 -359.657898
vertex 26.343311 -1163.903931 -436.250000
endloop
endfacet
facet normal 0.792743 -0.326447 -0.514772
outer loop
vertex 76.078651 -1163.904541 -359.657898
vertex 37.121521 -1287.693848 -341.149414
vertex 26.343311 -1163.903931 -436.250000
endloop
endfacet
facet normal -0.255165 -0.210440 -0.943719
outer loop
vertex 26.343311 -1163.903931 -436.250000
vertex -29.261536 -1096.481567 -436.249969
vertex 10.974731 -987.392517 -471.454895
endloop
endfacet
facet normal -0.467771 -0.385782 -0.795212
outer loop
vertex 26.343311 -1163.903931 -436.250000
vertex -13.893118 -1272.994751 -359.658203
vertex -29.261536 -1096.481567 -436.249969
endloop
endfacet
facet normal -0.837004 -0.277512 -0.471605
outer loop
vertex -13.893118 -1272.994751 -359.658203
vertex -57.479782 -1172.987305 -341.149353
vertex -29.261536 -1096.481567 -436.249969
endloop
endfacet
facet normal -0.658485 -0.000000 -0.752594
outer loop
vertex -29.261536 -1096.481567 -436.249969
vertex -29.261536 -878.303467 -436.250000
vertex 10.974731 -987.392517 -471.454895
endloop
endfacet
facet normal -0.885276 -0.000000 -0.465066
outer loop
vertex -29.261536 -1096.481567 -436.249969
vertex -69.498039 -987.392517 -359.657837
vertex -29.261536 -878.303467 -436.250000
endloop
endfacet
facet normal -0.930749 0.095472 -0.352976
outer loop
vertex -69.498039 -987.392517 -359.657837
vertex -57.479782 -801.797791 -341.149384
vertex -29.261536 -878.303467 -436.250000
endloop
endfacet
facet normal -0.255165 0.210440 -0.943719
outer loop
vertex -29.261536 -878.303467 -436.250000
vertex 26.343311 -810.881165 -436.250061
vertex 10.974731 -987.392517 -471.454895
endloop
endfacet
facet normal -0.467771 0.385782 -0.795212
outer loop
vertex -29.261536 -878.303467 -436.250000
vertex -13.893118 -701.790283 -359.658264
vertex 26.343311 -810.881165 -436.250061
endloop
endfacet
facet normal 0.114997 0.598861 -0.792554
outer loop
vertex -13.893118 -701.790283 -359.658264
vertex 37.121521 -687.091187 -341.149475
vertex 26.343311 -810.881165 -436.250061
endloop
endfacet
facet normal 0.574141 0.111781 -0.811090
outer loop
vertex 26.343311 -810.881165 -436.250061
vertex 60.709686 -987.392517 -436.249390
vertex 10.974731 -987.392517 -471.454895
endloop
endfacet
facet normal 0.827728 0.161155 -0.537490
outer loop
vertex 26.343311 -810.881165 -436.250061
vertex 76.078651 -810.880615 -359.657928
vertex 60.709686 -987.392517 -436.249390
endloop
endfacet
facet normal 0.936706 0.067512 -0.343547
outer loop
vertex 76.078651 -810.880615 -359.657928
vertex 95.589012 -987.392517 -341.148438
vertex 60.709686 -987.392517 -436.249390
endloop
endfacet
facet normal 0.984748 -0.093458 -0.146755
outer loop
vertex 100.946465 -1096.482056 -235.727432
vertex 76.078651 -1163.904541 -359.657898
vertex 95.589012 -987.392517 -341.148438
endloop
endfacet
facet normal 0.977353 -0.190284 -0.092594
outer loop
vertex 100.946465 -1096.482056 -235.727432
vertex 66.580276 -1272.996460 -235.727417
vertex 76.078651 -1163.904541 -359.657898
endloop
endfacet
facet normal 0.922456 -0.322128 -0.212858
outer loop
vertex 66.580276 -1272.996460 -235.727417
vertex 37.121521 -1287.693848 -341.149414
vertex 76.078651 -1163.904541 -359.657898
endloop
endfacet
facet normal -0.086355 -0.882306 -0.462686
outer loop
vertex 10.974731 -1340.418579 -235.727417
vertex -13.893118 -1272.994751 -359.658203
vertex 37.121521 -1287.693848 -341.149414
endloop
endfacet
facet normal -0.757725 -0.624924 -0.187942
outer loop
vertex 10.974731 -1340.418579 -235.727417
vertex -44.630814 -1272.996460 -235.727417
vertex -13.893118 -1272.994751 -359.658203
endloop
endfacet
facet normal -0.907755 -0.353961 -0.225150
outer loop
vertex -44.630814 -1272.996460 -235.727417
vertex -57.479782 -1172.987305 -341.149353
vertex -13.893118 -1272.994751 -359.658203
endloop
endfacet
facet normal -0.986401 -0.078287 -0.144517
outer loop
vertex -78.997002 -1096.482056 -235.727432
vertex -69.498039 -987.392517 -359.657837
vertex -57.479782 -1172.987305 -341.149353
endloop
endfacet
facet normal -0.997075 0.000000 -0.076423
outer loop
vertex -78.997002 -1096.482056 -235.727432
vertex -78.997002 -878.302979 -235.727463
vertex -69.498039 -987.392517 -359.657837
endloop
endfacet
facet normal -0.986400 0.078287 -0.144517
outer loop
vertex -78.997002 -878.302979 -235.727463
vertex -57.479782 -801.797791 -341.149384
vertex -69.498039 -987.392517 -359.657837
endloop
endfacet
facet normal -0.907755 0.353961 -0.225149
outer loop
vertex -44.630814 -701.788574 -235.727478
vertex -13.893118 -701.790283 -359.658264
vertex -57.479782 -801.797791 -341.149384
endloop
endfacet
facet normal -0.757725 0.624924 -0.187942
outer loop
vertex -44.630814 -701.788574 -235.727478
vertex 10.974731 -634.366455 -235.727478
vertex -13.893118 -701.790283 -359.658264
endloop
endfacet
facet normal -0.086354 0.882306 -0.462686
outer loop
vertex 10.974731 -634.366455 -235.727478
vertex 37.121521 -687.091187 -341.149475
vertex -13.893118 -701.790283 -359.658264
endloop
endfacet
facet normal 0.922456 0.322127 -0.212859
outer loop
vertex 66.580276 -701.788574 -235.727478
vertex 76.078651 -810.880615 -359.657928
vertex 37.121521 -687.091187 -341.149475
endloop
endfacet
facet normal 0.977353 0.190284 -0.092594
outer loop
vertex 66.580276 -701.788574 -235.727478
vertex 100.946465 -878.302979 -235.727463
vertex 76.078651 -810.880615 -359.657928
endloop
endfacet
facet normal 0.984748 0.093458 -0.146755
outer loop
vertex 100.946465 -878.302979 -235.727463
vertex 95.589012 -987.392517 -341.148438
vertex 76.078651 -810.880615 -359.657928
endloop
endfacet
facet normal 0.765337 -0.631203 -0.125865
outer loop
vertex 66.580276 -1272.996460 -235.727417
vertex 10.974731 -1340.418579 -235.727417
vertex 37.121521 -1287.693848 -341.149414
endloop
endfacet
facet normal 0.757725 -0.624924 0.187943
outer loop
vertex 66.580276 -1272.996460 -235.727417
vertex 35.842583 -1272.994751 -111.796631
vertex 10.974731 -1340.418579 -235.727417
endloop
endfacet
facet normal 0.086355 -0.882306 0.462687
outer loop
vertex 35.842583 -1272.994751 -111.796631
vertex -15.172058 -1287.693848 -130.305420
vertex 10.974731 -1340.418579 -235.727417
endloop
endfacet
facet normal -0.979709 -0.190743 -0.061541
outer loop
vertex -44.630814 -1272.996460 -235.727417
vertex -78.997002 -1096.482056 -235.727432
vertex -57.479782 -1172.987305 -341.149353
endloop
endfacet
facet normal -0.977353 -0.190284 0.092594
outer loop
vertex -44.630814 -1272.996460 -235.727417
vertex -54.129189 -1163.904419 -111.796974
vertex -78.997002 -1096.482056 -235.727432
endloop
endfacet
facet normal -0.984748 -0.093458 0.146755
outer loop
vertex -54.129189 -1163.904419 -111.796974
vertex -73.639549 -987.392517 -130.306458
vertex -78.997002 -1096.482056 -235.727432
endloop
endfacet
facet normal -0.979709 0.190743 -0.061541
outer loop
vertex -78.997002 -878.302979 -235.727463
vertex -44.630814 -701.788574 -235.727478
vertex -57.479782 -801.797791 -341.149384
endloop
endfacet
facet normal -0.977353 0.190284 0.092594
outer loop
vertex -78.997002 -878.302979 -235.727463
vertex -54.129189 -810.880554 -111.797005
vertex -44.630814 -701.788574 -235.727478
endloop
endfacet
facet normal -0.922456 0.322127 0.212859
outer loop
vertex -54.129189 -810.880554 -111.797005
vertex -15.172058 -687.091187 -130.305481
vertex -44.630814 -701.788574 -235.727478
endloop
endfacet
facet normal 0.765337 0.631203 -0.125865
outer loop
vertex 10.974731 -634.366455 -235.727478
vertex 66.580276 -701.788574 -235.727478
vertex 37.121521 -687.091187 -341.149475
endloop
endfacet
facet normal 0.757725 0.624924 0.187942
outer loop
vertex 10.974731 -634.366455 -235.727478
vertex 35.842583 -701.790283 -111.796677
vertex 66.580276 -701.788574 -235.727478
endloop
endfacet
facet normal 0.907755 0.353961 0.225149
outer loop
vertex 35.842583 -701.790283 -111.796677
vertex 79.429245 -801.797791 -130.305542
vertex 66.580276 -701.788574 -235.727478
endloop
endfacet
facet normal 0.998711 0.000000 -0.050754
outer loop
vertex 100.946465 -878.302979 -235.727463
vertex 100.946465 -1096.482056 -235.727432
vertex 95.589012 -987.392517 -341.148438
endloop
endfacet
facet normal 0.997075 0.000000 0.076423
outer loop
vertex 100.946465 -878.302979 -235.727463
vertex 91.447502 -987.392517 -111.797066
vertex 100.946465 -1096.482056 -235.727432
endloop
endfacet
facet normal 0.986401 -0.078287 0.144517
outer loop
vertex 91.447502 -987.392517 -111.797066
vertex 79.429245 -1172.987183 -130.305511
vertex 100.946465 -1096.482056 -235.727432
endloop
endfacet
facet normal 0.837004 -0.277512 0.471605
outer loop
vertex 51.210999 -1096.481567 -35.204895
vertex 35.842583 -1272.994751 -111.796631
vertex 79.429245 -1172.987183 -130.305511
endloop
endfacet
facet normal 0.467771 -0.385782 0.795212
outer loop
vertex 51.210999 -1096.481567 -35.204895
vertex -4.393848 -1163.903809 -35.204834
vertex 35.842583 -1272.994751 -111.796631
endloop
endfacet
facet normal -0.114997 -0.598860 0.792554
outer loop
vertex -4.393848 -1163.903809 -35.204834
vertex -15.172058 -1287.693848 -130.305420
vertex 35.842583 -1272.994751 -111.796631
endloop
endfacet
facet normal -0.792743 -0.326447 0.514773
outer loop
vertex -4.393848 -1163.903809 -35.204834
vertex -54.129189 -1163.904419 -111.796974
vertex -15.172058 -1287.693848 -130.305420
endloop
endfacet
facet normal -0.827729 -0.161155 0.537489
outer loop
vertex -4.393848 -1163.903809 -35.204834
vertex -38.760223 -987.392517 -35.205505
vertex -54.129189 -1163.904419 -111.796974
endloop
endfacet
facet normal -0.936706 -0.067511 0.343547
outer loop
vertex -38.760223 -987.392517 -35.205505
vertex -73.639549 -987.392517 -130.306458
vertex -54.129189 -1163.904419 -111.796974
endloop
endfacet
facet normal -0.936706 0.067512 0.343547
outer loop
vertex -38.760223 -987.392517 -35.205505
vertex -54.129189 -810.880554 -111.797005
vertex -73.639549 -987.392517 -130.306458
endloop
endfacet
facet normal -0.827728 0.161155 0.537489
outer loop
vertex -38.760223 -987.392517 -35.205505
vertex -4.393848 -810.881165 -35.204865
vertex -54.129189 -810.880554 -111.797005
endloop
endfacet
facet normal -0.792743 0.326447 0.514772
outer loop
vertex -4.393848 -810.881165 -35.204865
vertex -15.172058 -687.091187 -130.305481
vertex -54.129189 -810.880554 -111.797005
endloop
endfacet
facet normal 0.930749 -0.095472 0.352976
outer loop
vertex 91.447502 -987.392517 -111.797066
vertex 51.210999 -1096.481567 -35.204895
vertex 79.429245 -1172.987183 -130.305511
endloop
endfacet
facet normal 0.885276 0.000000 0.465066
outer loop
vertex 91.447502 -987.392517 -111.797066
vertex 51.210999 -878.303406 -35.204926
vertex 51.210999 -1096.481567 -35.204895
endloop
endfacet
facet normal 0.658485 0.000000 0.752594
outer loop
vertex 51.210999 -878.303406 -35.204926
vertex 10.974731 -987.392517 0.000000
vertex 51.210999 -1096.481567 -35.204895
endloop
endfacet
facet normal -0.114997 0.598860 0.792554
outer loop
vertex -4.393848 -810.881165 -35.204865
vertex 35.842583 -701.790283 -111.796677
vertex -15.172058 -687.091187 -130.305481
endloop
endfacet
facet normal 0.467771 0.385782 0.795212
outer loop
vertex -4.393848 -810.881165 -35.204865
vertex 51.210999 -878.303406 -35.204926
vertex 35.842583 -701.790283 -111.796677
endloop
endfacet
facet normal 0.837004 0.277512 0.471606
outer loop
vertex 51.210999 -878.303406 -35.204926
vertex 79.429245 -801.797791 -130.305542
vertex 35.842583 -701.790283 -111.796677
endloop
endfacet
facet normal 0.094106 -0.326346 -0.940554
outer loop
vertex 184.281799 167.809174 59.685425
vertex 246.934586 127.411880 79.970848
vertex 160.351044 102.444427 79.970810
endloop
endfacet
facet normal 0.668703 -0.288421 -0.685310
outer loop
vertex 290.873840 99.080719 134.768784
vertex 246.934586 127.411880 79.970848
vertex 309.587769 167.809174 124.104012
endloop
endfacet
facet normal -0.248112 -0.203118 -0.947198
outer loop
vertex 184.281799 167.809174 59.685425
vertex 160.351044 102.444427 79.970810
vertex 106.838387 167.809174 79.971184
endloop
endfacet
facet normal -0.248112 0.203118 -0.947198
outer loop
vertex 184.281799 167.809174 59.685425
vertex 106.838387 167.809174 79.971184
vertex 160.351044 233.173920 79.970810
endloop
endfacet
facet normal 0.094106 0.326346 -0.940554
outer loop
vertex 184.281799 167.809174 59.685425
vertex 160.351044 233.173920 79.970810
vertex 246.934586 208.206467 79.970848
endloop
endfacet
facet normal 0.888012 -0.296351 -0.351582
outer loop
vertex 290.873840 99.080719 134.768784
vertex 309.587769 167.809174 124.104012
vertex 324.378784 127.411728 195.513947
endloop
endfacet
facet normal 0.022052 -0.947399 -0.319294
outer loop
vertex 143.568054 56.603172 134.768738
vertex 223.004089 62.046486 124.103783
vertex 184.281799 37.078445 195.513947
endloop
endfacet
facet normal -0.869914 -0.347152 -0.350336
outer loop
vertex 52.527008 167.809174 134.769318
vertex 82.907036 102.444206 124.103973
vertex 44.184799 127.411728 195.513947
endloop
endfacet
facet normal -0.531124 0.779883 -0.331194
outer loop
vertex 143.568054 279.015167 134.768738
vertex 82.907036 233.174133 124.103973
vertex 97.697166 273.572510 195.513947
endloop
endfacet
facet normal 0.491619 0.806059 -0.329513
outer loop
vertex 290.873840 236.537628 134.768784
vertex 223.004089 273.571869 124.103783
vertex 270.866425 273.572510 195.513947
endloop
endfacet
facet normal 0.767187 -0.628064 -0.130230
outer loop
vertex 290.873840 99.080719 134.768784
vertex 324.378784 127.411728 195.513947
vertex 270.866425 62.045822 195.513947
endloop
endfacet
facet normal -0.274992 -0.953648 -0.122211
outer loop
vertex 143.568054 56.603172 134.768738
vertex 184.281799 37.078445 195.513947
vertex 97.697166 62.045822 195.513947
endloop
endfacet
facet normal -0.990701 0.000000 -0.136056
outer loop
vertex 52.527008 167.809174 134.769318
vertex 44.184799 127.411728 195.513947
vertex 44.184799 208.206619 195.513947
endloop
endfacet
facet normal -0.274992 0.953647 -0.122212
outer loop
vertex 143.568054 279.015167 134.768738
vertex 97.697166 273.572510 195.513947
vertex 184.281799 298.539917 195.513947
endloop
endfacet
facet normal 0.767187 0.628064 -0.130230
outer loop
vertex 290.873840 236.537628 134.768784
vertex 270.866425 273.572510 195.513947
vertex 324.378784 208.206619 195.513947
endloop
endfacet
facet normal 0.375889 -0.650866 0.659607
outer loop
vertex 224.995544 56.603172 256.259155
vertex 285.656555 102.444206 266.923920
vertex 208.212555 102.444427 311.057068
endloop
endfacet
facet normal -0.435937 -0.607757 0.663770
outer loop
vertex 77.689751 99.080719 256.259125
vertex 145.559509 62.046486 266.924103
vertex 121.629013 127.411880 311.057037
endloop
endfacet
facet normal -0.668703 0.288421 0.685310
outer loop
vertex 77.689751 236.537628 256.259125
vertex 58.975845 167.809174 266.923889
vertex 121.629013 208.206467 311.057037
endloop
endfacet
facet normal 0.034766 0.761277 0.647494
outer loop
vertex 224.995544 279.015167 256.259155
vertex 145.559509 273.571869 266.924103
vertex 208.212555 233.173920 311.057068
endloop
endfacet
facet normal 0.694351 0.210430 0.688183
outer loop
vertex 316.036591 167.809174 256.258575
vertex 285.656555 233.174133 266.923920
vertex 261.725220 167.809174 311.056702
endloop
endfacet
facet normal 0.248112 0.203119 0.947198
outer loop
vertex 261.725220 167.809174 311.056702
vertex 208.212555 233.173920 311.057068
vertex 184.281799 167.809174 331.342468
endloop
endfacet
facet normal 0.458856 0.375651 0.805194
outer loop
vertex 261.725220 167.809174 311.056702
vertex 285.656555 233.174133 266.923920
vertex 208.212555 233.173920 311.057068
endloop
endfacet
facet normal 0.375889 0.650866 0.659607
outer loop
vertex 285.656555 233.174133 266.923920
vertex 224.995544 279.015167 256.259155
vertex 208.212555 233.173920 311.057068
endloop
endfacet
facet normal -0.094106 0.326346 0.940554
outer loop
vertex 208.212555 233.173920 311.057068
vertex 121.629013 208.206467 311.057037
vertex 184.281799 167.809174 331.342468
endloop
endfacet
facet normal -0.171170 0.593590 0.786354
outer loop
vertex 208.212555 233.173920 311.057068
vertex 145.559509 273.571869 266.924103
vertex 121.629013 208.206467 311.057037
endloop
endfacet
facet normal -0.435937 0.607757 0.663770
outer loop
vertex 145.559509 273.571869 266.924103
vertex 77.689751 236.537628 256.259125
vertex 121.629013 208.206467 311.057037
endloop
endfacet
facet normal -0.308033 0.000000 0.951376
outer loop
vertex 121.629013 208.206467 311.057037
vertex 121.629013 127.411880 311.057037
vertex 184.281799 167.809174 331.342468
endloop
endfacet
facet normal -0.575876 0.000000 0.817537
outer loop
vertex 121.629013 208.206467 311.057037
vertex 58.975845 167.809174 266.923889
vertex 121.629013 127.411880 311.057037
endloop
endfacet
facet normal -0.668703 -0.288420 0.685310
outer loop
vertex 58.975845 167.809174 266.923889
vertex 77.689751 99.080719 256.259125
vertex 121.629013 127.411880 311.057037
endloop
endfacet
facet normal -0.094106 -0.326347 0.940554
outer loop
vertex 121.629013 127.411880 311.057037
vertex 208.212555 102.444427 311.057068
vertex 184.281799 167.809174 331.342468
endloop
endfacet
facet normal -0.171170 -0.593590 0.786353
outer loop
vertex 121.629013 127.411880 311.057037
vertex 145.559509 62.046486 266.924103
vertex 208.212555 102.444427 311.057068
endloop
endfacet
facet normal 0.034765 -0.761277 0.647494
outer loop
vertex 145.559509 62.046486 266.924103
vertex 224.995544 56.603172 256.259155
vertex 208.212555 102.444427 311.057068
endloop
endfacet
facet normal 0.248112 -0.203118 0.947198
outer loop
vertex 208.212555 102.444427 311.057068
vertex 261.725220 167.809174 311.056702
vertex 184.281799 167.809174 331.342468
endloop
endfacet
facet normal 0.458856 -0.375651 0.805194
outer loop
vertex 208.212555 102.444427 311.057068
vertex 285.656555 102.444206 266.923920
vertex 261.725220 167.809174 311.056702
endloop
endfacet
facet normal 0.694351 -0.210430 0.688183
outer loop
vertex 285.656555 102.444206 266.923920
vertex 316.036591 167.809174 256.258575
vertex 261.725220 167.809174 311.056702
endloop
endfacet
facet normal 0.869914 0.347153 0.350336
outer loop
vertex 324.378784 208.206619 195.513947
vertex 285.656555 233.174133 266.923920
vertex 316.036591 167.809174 256.258575
endloop
endfacet
facet normal 0.759026 0.621383 0.194325
outer loop
vertex 324.378784 208.206619 195.513947
vertex 270.866425 273.572510 195.513947
vertex 285.656555 233.174133 266.923920
endloop
endfacet
facet normal 0.531125 0.779883 0.331194
outer loop
vertex 270.866425 273.572510 195.513947
vertex 224.995544 279.015167 256.259155
vertex 285.656555 233.174133 266.923920
endloop
endfacet
facet normal -0.022052 0.947399 0.319294
outer loop
vertex 184.281799 298.539917 195.513947
vertex 145.559509 273.571869 266.924103
vertex 224.995544 279.015167 256.259155
endloop
endfacet
facet normal -0.272411 0.944697 0.182591
outer loop
vertex 184.281799 298.539917 195.513947
vertex 97.697166 273.572510 195.513947
vertex 145.559509 273.571869 266.924103
endloop
endfacet
facet normal -0.491619 0.806060 0.329513
outer loop
vertex 97.697166 273.572510 195.513947
vertex 77.689751 236.537628 256.259125
vertex 145.559509 273.571869 266.924103
endloop
endfacet
facet normal -0.888013 0.296351 0.351582
outer loop
vertex 44.184799 208.206619 195.513947
vertex 58.975845 167.809174 266.923889
vertex 77.689751 236.537628 256.259125
endloop
endfacet
facet normal -0.979215 0.000000 0.202824
outer loop
vertex 44.184799 208.206619 195.513947
vertex 44.184799 127.411728 195.513947
vertex 58.975845 167.809174 266.923889
endloop
endfacet
facet normal -0.888013 -0.296351 0.351582
outer loop
vertex 44.184799 127.411728 195.513947
vertex 77.689751 99.080719 256.259125
vertex 58.975845 167.809174 266.923889
endloop
endfacet
facet normal -0.491619 -0.806060 0.329513
outer loop
vertex 97.697166 62.045822 195.513947
vertex 145.559509 62.046486 266.924103
vertex 77.689751 99.080719 256.259125
endloop
endfacet
facet normal -0.272411 -0.944697 0.182591
outer loop
vertex 97.697166 62.045822 195.513947
vertex 184.281799 37.078445 195.513947
vertex 145.559509 62.046486 266.924103
endloop
endfacet
facet normal -0.022052 -0.947399 0.319293
outer loop
vertex 184.281799 37.078445 195.513947
vertex 224.995544 56.603172 256.259155
vertex 145.559509 62.046486 266.924103
endloop
endfacet
facet normal 0.531124 -0.779883 0.331195
outer loop
vertex 270.866425 62.045822 195.513947
vertex 285.656555 102.444206 266.923920
vertex 224.995544 56.603172 256.259155
endloop
endfacet
facet normal 0.759026 -0.621383 0.194326
outer loop
vertex 270.866425 62.045822 195.513947
vertex 324.378784 127.411728 195.513947
vertex 285.656555 102.444206 266.923920
endloop
endfacet
facet normal 0.869914 -0.347152 0.350336
outer loop
vertex 324.378784 127.411728 195.513947
vertex 316.036591 167.809174 256.258575
vertex 285.656555 102.444206 266.923920
endloop
endfacet
facet normal 0.274992 0.953647 0.122212
outer loop
vertex 270.866425 273.572510 195.513947
vertex 184.281799 298.539917 195.513947
vertex 224.995544 279.015167 256.259155
endloop
endfacet
facet normal 0.272411 0.944697 -0.182590
outer loop
vertex 270.866425 273.572510 195.513947
vertex 223.004089 273.571869 124.103783
vertex 184.281799 298.539917 195.513947
endloop
endfacet
facet normal 0.022052 0.947399 -0.319294
outer loop
vertex 223.004089 273.571869 124.103783
vertex 143.568054 279.015167 134.768738
vertex 184.281799 298.539917 195.513947
endloop
endfacet
facet normal -0.767187 0.628064 0.130230
outer loop
vertex 97.697166 273.572510 195.513947
vertex 44.184799 208.206619 195.513947
vertex 77.689751 236.537628 256.259125
endloop
endfacet
facet normal -0.759026 0.621383 -0.194325
outer loop
vertex 97.697166 273.572510 195.513947
vertex 82.907036 233.174133 124.103973
vertex 44.184799 208.206619 195.513947
endloop
endfacet
facet normal -0.869914 0.347152 -0.350336
outer loop
vertex 82.907036 233.174133 124.103973
vertex 52.527008 167.809174 134.769318
vertex 44.184799 208.206619 195.513947
endloop
endfacet
facet normal -0.767187 -0.628064 0.130230
outer loop
vertex 44.184799 127.411728 195.513947
vertex 97.697166 62.045822 195.513947
vertex 77.689751 99.080719 256.259125
endloop
endfacet
facet normal -0.759026 -0.621383 -0.194325
outer loop
vertex 44.184799 127.411728 195.513947
vertex 82.907036 102.444206 124.103973
vertex 97.697166 62.045822 195.513947
endloop
endfacet
facet normal -0.531124 -0.779883 -0.331195
outer loop
vertex 82.907036 102.444206 124.103973
vertex 143.568054 56.603172 134.768738
vertex 97.697166 62.045822 195.513947
endloop
endfacet
facet normal 0.274992 -0.953648 0.122211
outer loop
vertex 184.281799 37.078445 195.513947
vertex 270.866425 62.045822 195.513947
vertex 224.995544 56.603172 256.259155
endloop
endfacet
facet normal 0.272411 -0.944697 -0.182591
outer loop
vertex 184.281799 37.078445 195.513947
vertex 223.004089 62.046486 124.103783
vertex 270.866425 62.045822 195.513947
endloop
endfacet
facet normal 0.491619 -0.806059 -0.329513
outer loop
vertex 223.004089 62.046486 124.103783
vertex 290.873840 99.080719 134.768784
vertex 270.866425 62.045822 195.513947
endloop
endfacet
facet normal 0.990701 0.000000 0.136055
outer loop
vertex 324.378784 127.411728 195.513947
vertex 324.378784 208.206619 195.513947
vertex 316.036591 167.809174 256.258575
endloop
endfacet
facet normal 0.979215 0.000000 -0.202823
outer loop
vertex 324.378784 127.411728 195.513947
vertex 309.587769 167.809174 124.104012
vertex 324.378784 208.206619 195.513947
endloop
endfacet
facet normal 0.888012 0.296351 -0.351582
outer loop
vertex 309.587769 167.809174 124.104012
vertex 290.873840 236.537628 134.768784
vertex 324.378784 208.206619 195.513947
endloop
endfacet
facet normal 0.435937 0.607757 -0.663770
outer loop
vertex 246.934586 208.206467 79.970848
vertex 223.004089 273.571869 124.103783
vertex 290.873840 236.537628 134.768784
endloop
endfacet
facet normal 0.171170 0.593590 -0.786354
outer loop
vertex 246.934586 208.206467 79.970848
vertex 160.351044 233.173920 79.970810
vertex 223.004089 273.571869 124.103783
endloop
endfacet
facet normal -0.034766 0.761277 -0.647494
outer loop
vertex 160.351044 233.173920 79.970810
vertex 143.568054 279.015167 134.768738
vertex 223.004089 273.571869 124.103783
endloop
endfacet
facet normal -0.375889 0.650866 -0.659606
outer loop
vertex 160.351044 233.173920 79.970810
vertex 82.907036 233.174133 124.103973
vertex 143.568054 279.015167 134.768738
endloop
endfacet
facet normal -0.458856 0.375651 -0.805194
outer loop
vertex 160.351044 233.173920 79.970810
vertex 106.838387 167.809174 79.971184
vertex 82.907036 233.174133 124.103973
endloop
endfacet
facet normal -0.694351 0.210429 -0.688183
outer loop
vertex 106.838387 167.809174 79.971184
vertex 52.527008 167.809174 134.769318
vertex 82.907036 233.174133 124.103973
endloop
endfacet
facet normal -0.694351 -0.210429 -0.688183
outer loop
vertex 106.838387 167.809174 79.971184
vertex 82.907036 102.444206 124.103973
vertex 52.527008 167.809174 134.769318
endloop
endfacet
facet normal -0.458856 -0.375651 -0.805194
outer loop
vertex 106.838387 167.809174 79.971184
vertex 160.351044 102.444427 79.970810
vertex 82.907036 102.444206 124.103973
endloop
endfacet
facet normal -0.375889 -0.650866 -0.659607
outer loop
vertex 160.351044 102.444427 79.970810
vertex 143.568054 56.603172 134.768738
vertex 82.907036 102.444206 124.103973
endloop
endfacet
facet normal 0.668703 0.288421 -0.685310
outer loop
vertex 309.587769 167.809174 124.104012
vertex 246.934586 208.206467 79.970848
vertex 290.873840 236.537628 134.768784
endloop
endfacet
facet normal 0.575877 0.000000 -0.817537
outer loop
vertex 309.587769 167.809174 124.104012
vertex 246.934586 127.411880 79.970848
vertex 246.934586 208.206467 79.970848
endloop
endfacet
facet normal 0.308032 0.000000 -0.951376
outer loop
vertex 246.934586 127.411880 79.970848
vertex 184.281799 167.809174 59.685425
vertex 246.934586 208.206467 79.970848
endloop
endfacet
facet normal -0.034766 -0.761277 -0.647494
outer loop
vertex 160.351044 102.444427 79.970810
vertex 223.004089 62.046486 124.103783
vertex 143.568054 56.603172 134.768738
endloop
endfacet
facet normal 0.171170 -0.593590 -0.786354
outer loop
vertex 160.351044 102.444427 79.970810
vertex 246.934586 127.411880 79.970848
vertex 223.004089 62.046486 124.103783
endloop
endfacet
facet normal 0.435937 -0.607757 -0.663770
outer loop
vertex 246.934586 127.411880 79.970848
vertex 290.873840 99.080719 134.768784
vertex 223.004089 62.046486 124.103783
endloop
endfacet
endsolid Exported from Blender-3.6.4 Release Candidate
