solid Exported from Blender-3.6.4 Release Candidate
facet normal -0.776601 -0.336918 0.532332
outer loop
vertex -106.986847 98.480896 94.102768
vertex -161.789551 -17.564098 -59.292892
vertex -48.333267 -165.864502 12.363697
endloop
endfacet
facet normal -0.776601 -0.336918 0.532332
outer loop
vertex -106.986847 98.480896 94.102768
vertex -48.333267 -165.864502 12.363697
vertex 6.469429 -49.819515 165.759354
endloop
endfacet
facet normal 0.567281 -0.741502 0.358283
outer loop
vertex 161.789551 17.564098 59.292892
vertex 6.469429 -49.819515 165.759354
vertex -48.333267 -165.864502 12.363697
endloop
endfacet
facet normal 0.567281 -0.741502 0.358283
outer loop
vertex 161.789551 17.564098 59.292892
vertex -48.333267 -165.864502 12.363697
vertex 106.986847 -98.480896 -94.102768
endloop
endfacet
facet normal -0.274013 -0.580225 -0.766978
outer loop
vertex 106.986847 -98.480896 -94.102768
vertex -48.333267 -165.864502 12.363697
vertex -161.789551 -17.564098 -59.292892
endloop
endfacet
facet normal -0.274014 -0.580225 -0.766978
outer loop
vertex 106.986847 -98.480896 -94.102768
vertex -161.789551 -17.564098 -59.292892
vertex -6.469429 49.819515 -165.759354
endloop
endfacet
facet normal 0.776601 0.336918 -0.532332
outer loop
vertex -6.469429 49.819515 -165.759354
vertex 48.333267 165.864502 -12.363697
vertex 161.789551 17.564098 59.292892
endloop
endfacet
facet normal 0.776601 0.336918 -0.532332
outer loop
vertex -6.469429 49.819515 -165.759354
vertex 161.789551 17.564098 59.292892
vertex 106.986847 -98.480896 -94.102768
endloop
endfacet
facet normal 0.274014 0.580225 0.766978
outer loop
vertex 48.333267 165.864502 -12.363697
vertex -106.986847 98.480896 94.102768
vertex 6.469429 -49.819515 165.759354
endloop
endfacet
facet normal 0.274013 0.580225 0.766978
outer loop
vertex 48.333267 165.864502 -12.363697
vertex 6.469429 -49.819515 165.759354
vertex 161.789551 17.564098 59.292892
endloop
endfacet
facet normal -0.567281 0.741502 -0.358283
outer loop
vertex -6.469429 49.819515 -165.759354
vertex -161.789551 -17.564098 -59.292892
vertex -106.986847 98.480896 94.102768
endloop
endfacet
facet normal -0.567281 0.741502 -0.358283
outer loop
vertex -6.469429 49.819515 -165.759354
vertex -106.986847 98.480896 94.102768
vertex 48.333267 165.864502 -12.363697
endloop
endfacet
endsolid Exported from Blender-3.6.4 Release Candidate
